<svg width="84" height="84" viewBox="0 0 84 84" fill="none" xmlns="http://www.w3.org/2000/svg">
<g clip-path="url(#clip0_665_514)">
<path d="M65.7676 38.8086L70.9118 43.9528L65.8327 49.097" stroke="#0075C9" stroke-miterlimit="10"/>
<path d="M18.2321 49.097L13.0879 43.8877L18.167 38.8086" stroke="#0075C9" stroke-miterlimit="10"/>
<path d="M55.8047 54.111L61.6651 34.7715" stroke="#0075C9" stroke-miterlimit="10"/>
<path d="M42.0643 28.7173L39.2643 31.5173L36.4643 28.7173C33.0783 25.3312 27.6736 25.3312 24.2876 28.7173C20.9015 32.1033 20.9015 37.508 24.2876 40.894L27.0876 43.694L39.2643 55.8708L51.4411 43.694L54.2411 40.894C57.6271 37.508 57.6271 32.1033 54.2411 28.7173C50.855 25.3963 45.4504 25.3963 42.0643 28.7173Z" stroke="#0075C9" stroke-miterlimit="10"/>
<path d="M40.5681 43.6936L39.2658 44.9308L38.0286 43.6936C36.5309 42.1959 34.0565 42.1959 32.5588 43.6936C31.0611 45.1912 31.0611 47.6657 32.5588 49.1633L33.796 50.4005L39.2658 55.8703L44.7355 50.4005L45.9728 49.1633C47.4704 47.6657 47.4704 45.1912 45.9728 43.6936C44.4751 42.1959 42.0658 42.1959 40.5681 43.6936Z" fill="#2995D6" stroke="#0075C9" stroke-miterlimit="10"/>
<path d="M83.675 0.326172H0.326172V83.675H83.675V0.326172Z" stroke="#0075C9" stroke-miterlimit="10"/>
</g>
<defs>
<clipPath id="clip0_665_514">
<rect width="84" height="84" fill="white"/>
</clipPath>
</defs>
</svg>
