<svg width="24" height="24" viewBox="0 0 24 24" fill="none" xmlns="http://www.w3.org/2000/svg">
<g clip-path="url(#clip0_665_250)">
<path d="M12.0009 24.0018C18.6288 24.0018 24.0018 18.6288 24.0018 12.0009C24.0018 5.37298 18.6288 0 12.0009 0C5.37298 0 0 5.37298 0 12.0009C0 18.6288 5.37298 24.0018 12.0009 24.0018Z" fill="#1977F3"/>
<path d="M16.6858 15.6889L17.2168 12.2202H13.8887V9.96981C13.8887 9.02219 14.3528 8.09566 15.8437 8.09566H17.3574V5.14203C17.3574 5.14203 15.9843 4.9082 14.671 4.9082C11.9301 4.9082 10.1386 6.56962 10.1386 9.57775V12.222H7.0918V15.6907H10.1404V24.0769C10.7504 24.1736 11.3781 24.2228 12.0145 24.2228C12.6509 24.2228 13.2786 24.1718 13.8887 24.0769V15.6907H16.6858V15.6889Z" fill="white"/>
</g>
<defs>
<clipPath id="clip0_665_250">
<rect width="24" height="24" fill="white"/>
</clipPath>
</defs>
</svg>
