<svg width="33" height="33" viewBox="0 0 33 33" fill="none" xmlns="http://www.w3.org/2000/svg">
<path d="M31.5023 16.0012C31.5023 24.5622 24.5622 31.5023 16.0012 31.5023C7.44011 31.5023 0.5 24.5622 0.5 16.0012C0.5 7.44011 7.44011 0.5 16.0012 0.5C24.5622 0.5 31.5023 7.44011 31.5023 16.0012Z" fill="#0075C9" stroke="#0075C9"/>
<path d="M22.2471 20.9192L22.955 16.2942H18.5176V13.2937C18.5176 12.0302 19.1364 10.7949 21.1243 10.7949H23.1426V6.85669C23.1426 6.85669 21.3118 6.54492 19.5607 6.54492C15.9062 6.54492 13.5175 8.76014 13.5175 12.771V16.2966H9.45508V20.9216H13.5198L13.5 31.5C14.3134 31.6289 15.1514 32 16 32C16.8486 32 17.7041 31.6266 18.5176 31.5V20.9216H22.2471V20.9192Z" fill="white"/>
</svg>
