<svg width="84" height="84" viewBox="0 0 84 84" fill="none" xmlns="http://www.w3.org/2000/svg">
<g clip-path="url(#clip0_665_525)">
<path d="M42.1298 40.3709C48.6391 40.3709 53.9158 35.0941 53.9158 28.5849C53.9158 22.0756 48.6391 16.7988 42.1298 16.7988C35.6205 16.7988 30.3438 22.0756 30.3438 28.5849C30.3438 35.0941 35.6205 40.3709 42.1298 40.3709Z" stroke="#0075C9" stroke-miterlimit="10"/>
<path d="M46.753 23.832H37.4414V25.0041H46.753V23.832Z" fill="#0075C9"/>
<path d="M37.4414 26.373V27.5451H40.5019V33.7963L41.674 34.773V27.5451V26.373H40.5019H37.4414Z" fill="#0075C9"/>
<path d="M46.7521 26.373H42.5195V27.5451H46.7521V26.373Z" fill="#0075C9"/>
<path d="M45.6451 29.1055H42.5195V30.2776H45.6451V29.1055Z" fill="#0075C9"/>
<path d="M46.0385 48.64C44.2803 50.3982 43.6943 52.9377 44.2803 55.2168C46.5594 55.8028 49.0989 55.2819 50.8571 53.4586C52.6152 51.7005 53.2012 49.1609 52.6152 46.8819C50.3361 46.2958 47.7966 46.8819 46.0385 48.64Z" fill="#2995D6" stroke="#0075C9" stroke-miterlimit="10"/>
<path d="M48.4471 51.0488L42.1309 57.4302" stroke="#0075C9" stroke-miterlimit="10"/>
<path d="M33.3392 53.4586C35.0974 55.2168 37.6369 55.8028 39.916 55.2168C40.502 52.9377 39.9811 50.3982 38.1578 48.64C36.3346 46.8819 33.8602 46.2958 31.5811 46.8819C30.995 49.2261 31.5811 51.7005 33.3392 53.4586Z" fill="#2995D6" stroke="#0075C9" stroke-miterlimit="10"/>
<path d="M35.75 51.0488L42.1314 57.4302" stroke="#0075C9" stroke-miterlimit="10"/>
<path d="M18.5586 64.5938H65.4423" stroke="#0075C9" stroke-miterlimit="10"/>
<path d="M25.0703 67.1992H58.9308" stroke="#0075C9" stroke-miterlimit="10"/>
<path d="M42.1309 64.8548V40.3711" stroke="#0075C9" stroke-miterlimit="10"/>
<path d="M83.675 0.326172H0.326172V83.675H83.675V0.326172Z" stroke="#0075C9" stroke-miterlimit="10"/>
</g>
<defs>
<clipPath id="clip0_665_525">
<rect width="84" height="84" fill="white"/>
</clipPath>
</defs>
</svg>
