<svg width="84" height="84" viewBox="0 0 84 84" fill="none" xmlns="http://www.w3.org/2000/svg">
<g clip-path="url(#clip0_665_496)">
<path d="M83.675 0.326172H0.326172V83.675H83.675V0.326172Z" stroke="#0075C9" stroke-miterlimit="10"/>
<path d="M49.401 27.0553L62.2012 39.8555L70.3509 31.7057L57.5508 18.9056L49.401 27.0553Z" fill="#2995D6" stroke="#0075C9" stroke-miterlimit="10"/>
<path d="M22.1647 39.9486L34.9648 27.1484L26.8151 18.9987L14.015 31.7989L22.1647 39.9486Z" fill="#2995D6" stroke="#0075C9" stroke-miterlimit="10"/>
<path d="M56.5855 50.0086C57.5622 48.6412 58.2134 47.0133 58.3436 45.3202L58.7994 40.697L60.8831 38.6133L50.5948 28.2598L48.511 30.3435H45.6459C42.911 30.3435 40.3064 31.4505 38.3529 33.3388L31.125 40.6319C31.125 40.6319 36.139 46.1016 41.9343 38.7435C41.9343 38.7435 47.9901 40.697 51.2459 36.3993" stroke="#0075C9" stroke-miterlimit="10"/>
<path d="M34.6416 47.1427C35.6184 48.1195 35.6184 49.7474 34.6416 50.7892L30.1486 55.2823C29.1719 56.259 27.5439 56.259 26.5021 55.2823C25.5253 54.3055 25.5253 52.6776 26.5021 51.6357L30.9951 47.1427C32.037 46.1009 33.6649 46.1009 34.6416 47.1427Z" stroke="#0075C9" stroke-miterlimit="10"/>
<path d="M41.9346 54.3712C42.9113 55.348 42.9113 56.9759 41.9346 58.0177L37.4416 62.5108C36.4648 63.4875 34.8369 63.4875 33.7951 62.5108C32.8183 61.534 32.8183 59.9061 33.7951 58.8643L38.2881 54.3712C39.2648 53.3945 40.9579 53.3945 41.9346 54.3712Z" stroke="#0075C9" stroke-miterlimit="10"/>
<path d="M39.2663 49.8126C40.2431 50.7894 40.2431 52.4173 39.2663 53.4592L32.8849 59.8406C31.9082 60.8173 30.2803 60.8173 29.2384 59.8406C28.2617 58.8638 28.2617 57.2359 29.2384 56.194L35.6198 49.8126C36.6617 48.7708 38.2896 48.7708 39.2663 49.8126Z" stroke="#0075C9" stroke-miterlimit="10"/>
<path d="M45.7129 39.1328L56.3269 49.7468C57.3036 50.7235 57.3036 52.3514 56.3269 53.3933C55.3501 54.37 53.7222 54.37 52.6803 53.3933L48.6431 49.3561" stroke="#0075C9" stroke-miterlimit="10"/>
<path d="M48.7071 49.3574L54.8931 55.5435C55.8698 56.5202 55.8698 58.1481 54.8931 59.19C53.9164 60.1667 52.2885 60.1667 51.2466 59.19L45.0605 53.0039" stroke="#0075C9" stroke-miterlimit="10"/>
<path d="M45.0605 53.0039L49.9443 57.8876C50.921 58.8644 50.921 60.4923 49.9443 61.5341C48.9675 62.5109 47.3396 62.5109 46.2978 61.5341L45.8419 61.0783" stroke="#0075C9" stroke-miterlimit="10"/>
<path d="M45.3204 58.213C46.2971 59.1898 46.2971 60.8177 45.3204 61.8595L42.2599 64.92C41.2832 65.8967 39.6553 65.8967 38.6134 64.92C37.6367 63.9433 37.6367 62.3153 38.6134 61.2735L41.6739 58.213C42.7157 57.2363 44.3436 57.2363 45.3204 58.213Z" stroke="#0075C9" stroke-miterlimit="10"/>
<path d="M27.7391 50.1375C26.7623 48.7701 26.1112 47.1422 25.9809 45.4491L25.5251 40.8259L23.4414 38.677L33.7298 28.3887L35.8135 30.4724L40.5019 31.7096" stroke="#0075C9" stroke-miterlimit="10"/>
</g>
<defs>
<clipPath id="clip0_665_496">
<rect width="84" height="84" fill="white"/>
</clipPath>
</defs>
</svg>
