<svg width="18" height="18" viewBox="0 0 18 18" fill="none" xmlns="http://www.w3.org/2000/svg">
<circle cx="9" cy="9" r="4" fill="#0075C9"/>
<path d="M8 1C8 0.447715 8.44772 0 9 0C9.55228 0 10 0.447715 10 1V3C10 3.55228 9.55228 4 9 4C8.44772 4 8 3.55228 8 3V1Z" fill="#0075C9"/>
<path d="M8 15C8 14.4477 8.44772 14 9 14C9.55228 14 10 14.4477 10 15V17C10 17.5523 9.55228 18 9 18C8.44772 18 8 17.5523 8 17V15Z" fill="#0075C9"/>
<path d="M1 10C0.447715 10 -1.95703e-08 9.55228 -4.37114e-08 9C-6.78525e-08 8.44772 0.447715 8 1 8L3 8C3.55228 8 4 8.44772 4 9C4 9.55228 3.55228 10 3 10L1 10Z" fill="#0075C9"/>
<path d="M15 10C14.4477 10 14 9.55228 14 9C14 8.44772 14.4477 8 15 8L17 8C17.5523 8 18 8.44772 18 9C18 9.55228 17.5523 10 17 10L15 10Z" fill="#0075C9"/>
<path d="M4.12117 15.5351C3.73064 15.9256 3.09748 15.9256 2.70696 15.5351C2.31643 15.1446 2.31643 14.5114 2.70696 14.1209L4.12117 12.7067C4.51169 12.3161 5.14486 12.3161 5.53538 12.7067C5.92591 13.0972 5.92591 13.7303 5.53538 14.1209L4.12117 15.5351Z" fill="#0075C9"/>
<path d="M14.1212 5.53508C13.7306 5.9256 13.0975 5.92561 12.707 5.53508C12.3164 5.14456 12.3164 4.51139 12.707 4.12087L14.1212 2.70665C14.5117 2.31613 15.1449 2.31613 15.5354 2.70665C15.9259 3.09718 15.9259 3.73034 15.5354 4.12087L14.1212 5.53508Z" fill="#0075C9"/>
<path d="M15.5351 14.121C15.9256 14.5115 15.9256 15.1447 15.5351 15.5352C15.1446 15.9258 14.5114 15.9258 14.1209 15.5352L12.7067 14.121C12.3161 13.7305 12.3161 13.0973 12.7067 12.7068C13.0972 12.3163 13.7303 12.3163 14.1209 12.7068L15.5351 14.121Z" fill="#0075C9"/>
<path d="M5.53508 4.12102C5.9256 4.51154 5.92561 5.14471 5.53508 5.53523C5.14456 5.92576 4.51139 5.92576 4.12087 5.53523L2.70665 4.12102C2.31613 3.73049 2.31613 3.09733 2.70665 2.70681C3.09718 2.31628 3.73034 2.31628 4.12087 2.70681L5.53508 4.12102Z" fill="#0075C9"/>
</svg>
