<svg width="80" height="80" viewBox="0 0 80 80" fill="none" xmlns="http://www.w3.org/2000/svg">
<path d="M80 0H0V80H80V0Z" fill="#0075C9"/>
<path d="M64.7 39.9992C64.7 45.3992 60.3 49.7992 54.9 49.7992C49.5 49.7992 40 39.9992 40 39.9992C40 39.9992 49.5 30.1992 54.9 30.1992C60.3 30.1992 64.7 34.5992 64.7 39.9992Z" stroke="white" stroke-width="2" stroke-miterlimit="10"/>
<path d="M15.3008 39.9992C15.3008 34.5992 19.7008 30.1992 25.1008 30.1992C30.5008 30.1992 40.0008 39.9992 40.0008 39.9992C40.0008 39.9992 30.5008 49.7992 25.1008 49.7992C19.7008 49.7992 15.3008 45.3992 15.3008 39.9992Z" stroke="white" stroke-width="2" stroke-miterlimit="10"/>
</svg>
