<svg width="24" height="24" viewBox="0 0 24 24" fill="none" xmlns="http://www.w3.org/2000/svg">
<g clip-path="url(#clip0_665_170)">
<path d="M12 0C6.99692 0 5.53846 0 5.24308 0.0369231C4.20923 0.129231 3.58154 0.276923 2.88 0.627692C2.34462 0.886154 1.92 1.2 1.49538 1.64308C0.738462 2.41846 0.276923 3.39692 0.110769 4.56C0.0369231 5.11385 0 5.22462 0 8.08615C0 9.04615 0 10.3015 0 12C0 17.0031 0 18.4615 0.0369231 18.7569C0.110769 19.7538 0.276923 20.3815 0.609231 21.0831C1.23692 22.3938 2.45538 23.3908 3.89538 23.76C4.39385 23.8892 4.92923 23.9631 5.63077 24C5.92615 24.0185 8.95385 24.0185 11.9815 24.0185C15.0092 24.0185 18.0369 24.0185 18.3323 24C19.1446 23.9631 19.6246 23.8892 20.1415 23.76C21.5815 23.3908 22.7631 22.4123 23.4277 21.0831C23.76 20.4185 23.9262 19.7538 24 18.8123C24.0185 18.6092 24.0185 15.3046 24.0185 12.0185C24.0185 8.73231 24.0185 5.42769 24 5.22462C23.9262 4.26462 23.76 3.61846 23.4277 2.93538C23.1508 2.38154 22.8369 1.95692 22.3938 1.53231C21.6 0.775385 20.6215 0.313846 19.4769 0.147692C18.9231 0.0738462 18.8123 0.0369231 15.9323 0.0369231H12V0Z" fill="url(#paint0_radial_665_170)"/>
<path d="M12 0C6.99692 0 5.53846 0 5.24308 0.0369231C4.20923 0.129231 3.58154 0.276923 2.88 0.627692C2.34462 0.886154 1.92 1.2 1.49538 1.64308C0.738462 2.41846 0.276923 3.39692 0.110769 4.56C0.0369231 5.11385 0 5.22462 0 8.08615C0 9.04615 0 10.3015 0 12C0 17.0031 0 18.4615 0.0369231 18.7569C0.110769 19.7538 0.276923 20.3815 0.609231 21.0831C1.23692 22.3938 2.45538 23.3908 3.89538 23.76C4.39385 23.8892 4.92923 23.9631 5.63077 24C5.92615 24.0185 8.95385 24.0185 11.9815 24.0185C15.0092 24.0185 18.0369 24.0185 18.3323 24C19.1446 23.9631 19.6246 23.8892 20.1415 23.76C21.5815 23.3908 22.7631 22.4123 23.4277 21.0831C23.76 20.4185 23.9262 19.7538 24 18.8123C24.0185 18.6092 24.0185 15.3046 24.0185 12.0185C24.0185 8.73231 24.0185 5.42769 24 5.22462C23.9262 4.26462 23.76 3.61846 23.4277 2.93538C23.1508 2.38154 22.8369 1.95692 22.3938 1.53231C21.6 0.775385 20.6215 0.313846 19.4769 0.147692C18.9231 0.0738462 18.8123 0.0369231 15.9323 0.0369231H12V0Z" fill="url(#paint1_radial_665_170)"/>
<path d="M12.0002 3.13867C9.60021 3.13867 9.28636 3.15713 8.34483 3.19406C7.40329 3.23098 6.75713 3.37867 6.18483 3.60021C5.59406 3.82175 5.11406 4.13559 4.61559 4.61559C4.11713 5.11406 3.82175 5.59406 3.60021 6.18483C3.37867 6.75713 3.23098 7.38483 3.19406 8.34483C3.15713 9.28636 3.13867 9.60021 3.13867 12.0002C3.13867 14.4002 3.15713 14.7141 3.19406 15.6556C3.23098 16.5971 3.37867 17.2433 3.60021 17.8156C3.82175 18.4064 4.13559 18.8864 4.61559 19.3848C5.11406 19.8833 5.59406 20.1787 6.18483 20.4002C6.75713 20.6217 7.38483 20.7694 8.34483 20.8064C9.28636 20.8433 9.60021 20.8617 12.0002 20.8617C14.4002 20.8617 14.7141 20.8433 15.6556 20.8064C16.5971 20.7694 17.2433 20.6217 17.8156 20.4002C18.4064 20.1787 18.8864 19.8648 19.3848 19.3848C19.8833 18.8864 20.1787 18.4064 20.4002 17.8156C20.6217 17.2433 20.7694 16.6156 20.8064 15.6556C20.8433 14.7141 20.8617 14.4002 20.8617 12.0002C20.8617 9.60021 20.8433 9.28636 20.8064 8.34483C20.7694 7.40329 20.6033 6.75713 20.4002 6.18483C20.1787 5.59406 19.8648 5.11406 19.3848 4.61559C18.8864 4.11713 18.4064 3.82175 17.8156 3.60021C17.2433 3.37867 16.5971 3.23098 15.6556 3.19406C14.7141 3.15713 14.4002 3.13867 12.0002 3.13867ZM11.2064 4.72636C11.4464 4.72636 11.7048 4.72636 12.0002 4.72636C14.3633 4.72636 14.6402 4.72636 15.5817 4.78175C16.4494 4.81867 16.911 4.96636 17.2248 5.09559C17.631 5.26175 17.9264 5.44636 18.2402 5.76021C18.5541 6.07406 18.7387 6.36944 18.9048 6.77559C19.0341 7.08944 19.1633 7.55098 19.2187 8.41867C19.2556 9.36021 19.2741 9.63713 19.2741 12.0002C19.2741 14.3633 19.2556 14.6402 19.2187 15.5817C19.1817 16.4494 19.0341 16.911 18.9048 17.2248C18.7387 17.631 18.5541 17.9264 18.2402 18.2402C17.9264 18.5541 17.631 18.7387 17.2248 18.9048C16.911 19.0341 16.4494 19.1633 15.5817 19.2187C14.6402 19.2556 14.3633 19.2741 12.0002 19.2741C9.63713 19.2741 9.36021 19.2556 8.41867 19.2187C7.55098 19.1817 7.08944 19.0341 6.7756 18.9048C6.36944 18.7387 6.07406 18.5541 5.76021 18.2402C5.44636 17.9264 5.26175 17.631 5.0956 17.2248C4.96636 16.911 4.83713 16.4494 4.78175 15.5817C4.74483 14.6402 4.72636 14.3633 4.72636 12.0002C4.72636 9.63713 4.72636 9.36021 4.78175 8.41867C4.81867 7.55098 4.96636 7.08944 5.0956 6.77559C5.26175 6.36944 5.44636 6.07406 5.76021 5.76021C6.07406 5.44636 6.36944 5.26175 6.7756 5.09559C7.08944 4.96636 7.55098 4.83713 8.41867 4.78175C9.23098 4.74483 9.56329 4.72636 11.2064 4.72636ZM16.7264 6.20329C16.1356 6.20329 15.6556 6.68329 15.6556 7.27406C15.6556 7.86483 16.1356 8.34483 16.7264 8.34483C17.3171 8.34483 17.7971 7.86483 17.7971 7.27406C17.7971 6.68329 17.3171 6.20329 16.7264 6.20329ZM12.0002 7.44021C9.48944 7.44021 7.44021 9.47098 7.44021 12.0002C7.44021 14.5294 9.47098 16.5417 12.0002 16.5417C14.511 16.5417 16.5417 14.511 16.5417 12.0002C16.5417 9.48944 14.511 7.44021 12.0002 7.44021ZM12.0002 9.04636C13.6248 9.04636 14.9541 10.3756 14.9541 12.0002C14.9541 13.6248 13.6248 14.9541 12.0002 14.9541C10.3756 14.9541 9.04636 13.6248 9.04636 12.0002C9.04636 10.3756 10.3756 9.04636 12.0002 9.04636Z" fill="white"/>
</g>
<defs>
<radialGradient id="paint0_radial_665_170" cx="0" cy="0" r="1" gradientUnits="userSpaceOnUse" gradientTransform="translate(6.37623 25.8517) rotate(-90) scale(23.784 22.1268)">
<stop stop-color="#FFDD55"/>
<stop offset="0.1" stop-color="#FFDD55"/>
<stop offset="0.5" stop-color="#FF543E"/>
<stop offset="1" stop-color="#C837AB"/>
</radialGradient>
<radialGradient id="paint1_radial_665_170" cx="0" cy="0" r="1" gradientUnits="userSpaceOnUse" gradientTransform="translate(-4.0214 1.72583) rotate(78.6799) scale(10.6312 43.8348)">
<stop stop-color="#3771C8"/>
<stop offset="0.128" stop-color="#3771C8"/>
<stop offset="1" stop-color="#6600FF" stop-opacity="0"/>
</radialGradient>
<clipPath id="clip0_665_170">
<rect width="24" height="24" fill="white"/>
</clipPath>
</defs>
</svg>
