<svg width="33" height="33" viewBox="0 0 33 33" fill="none" xmlns="http://www.w3.org/2000/svg">
<path fill-rule="evenodd" clip-rule="evenodd" d="M32.0023 16.0012C32.0023 24.8384 24.8384 32.0023 16.0012 32.0023C7.16397 32.0023 0 24.8384 0 16.0012C0 7.16397 7.16397 0 16.0012 0C24.8384 0 32.0023 7.16397 32.0023 16.0012ZM12.8464 8.04422C13.5905 8.01474 13.9625 8 16 8C18.0375 8 18.4095 8.01474 19.1536 8.04422C19.2007 8.04609 19.2493 8.04801 19.3 8.05C20.15 8.08333 20.7333 8.21667 21.25 8.41667C21.7833 8.61667 22.2167 8.88333 22.6667 9.33333C23.1 9.78333 23.3833 10.2167 23.5833 10.75C23.7667 11.2667 23.9167 11.85 23.95 12.7C23.952 12.7507 23.9539 12.7993 23.9558 12.8465C23.9853 13.5905 24 13.9625 24 16C24 18.0375 23.9853 18.4095 23.9558 19.1535C23.9539 19.2007 23.952 19.2493 23.95 19.3C23.9167 20.1667 23.7833 20.7333 23.5833 21.25C23.3833 21.7833 23.1167 22.2167 22.6667 22.6667C22.2167 23.1 21.7833 23.3833 21.25 23.5833C20.7333 23.7833 20.15 23.9167 19.3 23.95C19.2493 23.952 19.2007 23.9539 19.1535 23.9558C18.4095 23.9853 18.0375 24 16 24C13.9625 24 13.5905 23.9853 12.8465 23.9558C12.7993 23.9539 12.7507 23.952 12.7 23.95C11.8333 23.9167 11.2667 23.7833 10.75 23.5833C10.2167 23.3833 9.78333 23.1167 9.33333 22.6667C8.9 22.2167 8.61667 21.7833 8.41667 21.25C8.21667 20.7333 8.08333 20.15 8.05 19.3C8.04801 19.2493 8.04609 19.2007 8.04422 19.1536C8.01474 18.4095 8 18.0375 8 16C8 13.9625 8.01474 13.5905 8.04422 12.8464C8.04609 12.7993 8.04801 12.7507 8.05 12.7C8.08333 11.8333 8.21667 11.2667 8.41667 10.75C8.61667 10.2167 8.88333 9.78333 9.33333 9.33333C9.78333 8.9 10.2167 8.61667 10.75 8.41667C11.2667 8.21667 11.85 8.08333 12.7 8.05C12.7507 8.04801 12.7993 8.04609 12.8464 8.04422ZM16 9.43333H15.2833C13.8625 9.43333 13.5274 9.44863 12.8571 9.47921C12.8277 9.48056 12.7976 9.48193 12.7667 9.48333C11.9833 9.53333 11.5667 9.65 11.2833 9.76667C10.9167 9.91667 10.65 10.0833 10.3667 10.3667C10.0833 10.65 9.91667 10.9167 9.76667 11.2833C9.65 11.5667 9.51667 11.9833 9.48333 12.7667C9.43333 13.6167 9.43333 13.8667 9.43333 16C9.43333 17.9773 9.44765 18.3367 9.47629 19.0555C9.47855 19.1122 9.4809 19.1712 9.48333 19.2333C9.53333 20.0167 9.65 20.4333 9.76667 20.7167C9.91667 21.0833 10.0833 21.35 10.3667 21.6333C10.65 21.9167 10.9167 22.0833 11.2833 22.2333C11.5667 22.35 11.9833 22.4833 12.7667 22.5167C12.8289 22.5191 12.8878 22.5215 12.9446 22.5237C13.6633 22.5523 14.0227 22.5667 16 22.5667C17.9773 22.5667 18.3367 22.5523 19.0554 22.5237C19.1122 22.5215 19.1711 22.5191 19.2333 22.5167C20.0167 22.4667 20.4333 22.35 20.7167 22.2333C21.0833 22.0833 21.35 21.9167 21.6333 21.6333C21.9167 21.35 22.0833 21.0833 22.2333 20.7167C22.35 20.4333 22.4833 20.0167 22.5167 19.2333C22.5191 19.1711 22.5215 19.1122 22.5237 19.0554C22.5523 18.3367 22.5667 17.9773 22.5667 16C22.5667 14.0227 22.5523 13.6633 22.5237 12.9446C22.5215 12.8878 22.5191 12.8289 22.5167 12.7667C22.4667 11.9833 22.35 11.5667 22.2333 11.2833C22.0833 10.9167 21.9167 10.65 21.6333 10.3667C21.35 10.0833 21.0833 9.91667 20.7167 9.76667C20.4333 9.65 20.0167 9.51667 19.2333 9.48333C18.3833 9.43333 18.1333 9.43333 16 9.43333ZM19.3 11.7333C19.3 11.2 19.7333 10.7667 20.2667 10.7667C20.8 10.7667 21.2333 11.2 21.2333 11.7333C21.2333 12.2667 20.8 12.7 20.2667 12.7C19.7333 12.7 19.3 12.2667 19.3 11.7333ZM11.8833 16C11.8833 13.7167 13.7333 11.8833 16 11.8833C18.2667 11.8833 20.1 13.7333 20.1 16C20.1 18.2667 18.2667 20.1 16 20.1C13.7167 20.1 11.8833 18.2833 11.8833 16ZM18.6667 16C18.6667 14.5333 17.4667 13.3333 16 13.3333C14.5333 13.3333 13.3333 14.5333 13.3333 16C13.3333 17.4667 14.5333 18.6667 16 18.6667C17.4667 18.6667 18.6667 17.4667 18.6667 16Z" fill="white"/>
</svg>
