<svg width="24" height="24" viewBox="0 0 24 24" fill="none" xmlns="http://www.w3.org/2000/svg">
<g clip-path="url(#clip0_666_12625)">
<path d="M12 0C6.99692 0 5.53846 0 5.24308 0.0369231C4.20923 0.129231 3.58154 0.276923 2.88 0.627692C2.34462 0.886154 1.92 1.2 1.49538 1.64308C0.738462 2.41846 0.276923 3.39692 0.110769 4.56C0.0369231 5.11385 0 5.22462 0 8.08615C0 9.04615 0 10.3015 0 12C0 17.0031 0 18.4615 0.0369231 18.7569C0.110769 19.7538 0.276923 20.3815 0.609231 21.0831C1.23692 22.3938 2.45538 23.3908 3.89538 23.76C4.39385 23.8892 4.92923 23.9631 5.63077 24C5.92615 24.0185 8.95385 24.0185 11.9815 24.0185C15.0092 24.0185 18.0369 24.0185 18.3323 24C19.1446 23.9631 19.6246 23.8892 20.1415 23.76C21.5815 23.3908 22.7631 22.4123 23.4277 21.0831C23.76 20.4185 23.9262 19.7538 24 18.8123C24.0185 18.6092 24.0185 15.3046 24.0185 12.0185C24.0185 8.73231 24.0185 5.42769 24 5.22462C23.9262 4.26462 23.76 3.61846 23.4277 2.93538C23.1508 2.38154 22.8369 1.95692 22.3938 1.53231C21.6 0.775385 20.6215 0.313846 19.4769 0.147692C18.9231 0.0738462 18.8123 0.0369231 15.9323 0.0369231H12V0Z" fill="url(#paint0_radial_666_12625)"/>
<path d="M12 0C6.99692 0 5.53846 0 5.24308 0.0369231C4.20923 0.129231 3.58154 0.276923 2.88 0.627692C2.34462 0.886154 1.92 1.2 1.49538 1.64308C0.738462 2.41846 0.276923 3.39692 0.110769 4.56C0.0369231 5.11385 0 5.22462 0 8.08615C0 9.04615 0 10.3015 0 12C0 17.0031 0 18.4615 0.0369231 18.7569C0.110769 19.7538 0.276923 20.3815 0.609231 21.0831C1.23692 22.3938 2.45538 23.3908 3.89538 23.76C4.39385 23.8892 4.92923 23.9631 5.63077 24C5.92615 24.0185 8.95385 24.0185 11.9815 24.0185C15.0092 24.0185 18.0369 24.0185 18.3323 24C19.1446 23.9631 19.6246 23.8892 20.1415 23.76C21.5815 23.3908 22.7631 22.4123 23.4277 21.0831C23.76 20.4185 23.9262 19.7538 24 18.8123C24.0185 18.6092 24.0185 15.3046 24.0185 12.0185C24.0185 8.73231 24.0185 5.42769 24 5.22462C23.9262 4.26462 23.76 3.61846 23.4277 2.93538C23.1508 2.38154 22.8369 1.95692 22.3938 1.53231C21.6 0.775385 20.6215 0.313846 19.4769 0.147692C18.9231 0.0738462 18.8123 0.0369231 15.9323 0.0369231H12V0Z" fill="url(#paint1_radial_666_12625)"/>
<path d="M11.9983 3.13867C9.59826 3.13867 9.28441 3.15713 8.34287 3.19406C7.40133 3.23098 6.75518 3.37867 6.18287 3.60021C5.5921 3.82175 5.1121 4.13559 4.61364 4.61559C4.11518 5.11406 3.8198 5.59406 3.59826 6.18483C3.37672 6.75713 3.22903 7.38483 3.1921 8.34483C3.15518 9.28636 3.13672 9.60021 3.13672 12.0002C3.13672 14.4002 3.15518 14.7141 3.1921 15.6556C3.22903 16.5971 3.37672 17.2433 3.59826 17.8156C3.8198 18.4064 4.13364 18.8864 4.61364 19.3848C5.1121 19.8833 5.5921 20.1787 6.18287 20.4002C6.75518 20.6217 7.38287 20.7694 8.34287 20.8064C9.28441 20.8433 9.59826 20.8617 11.9983 20.8617C14.3983 20.8617 14.7121 20.8433 15.6536 20.8064C16.5952 20.7694 17.2413 20.6217 17.8136 20.4002C18.4044 20.1787 18.8844 19.8648 19.3829 19.3848C19.8813 18.8864 20.1767 18.4064 20.3983 17.8156C20.6198 17.2433 20.7675 16.6156 20.8044 15.6556C20.8413 14.7141 20.8598 14.4002 20.8598 12.0002C20.8598 9.60021 20.8413 9.28636 20.8044 8.34483C20.7675 7.40329 20.6013 6.75713 20.3983 6.18483C20.1767 5.59406 19.8629 5.11406 19.3829 4.61559C18.8844 4.11713 18.4044 3.82175 17.8136 3.60021C17.2413 3.37867 16.5952 3.23098 15.6536 3.19406C14.7121 3.15713 14.3983 3.13867 11.9983 3.13867ZM11.2044 4.72636C11.4444 4.72636 11.7029 4.72636 11.9983 4.72636C14.3613 4.72636 14.6383 4.72636 15.5798 4.78175C16.4475 4.81867 16.909 4.96636 17.2229 5.09559C17.629 5.26175 17.9244 5.44636 18.2383 5.76021C18.5521 6.07406 18.7367 6.36944 18.9029 6.77559C19.0321 7.08944 19.1613 7.55098 19.2167 8.41867C19.2536 9.36021 19.2721 9.63713 19.2721 12.0002C19.2721 14.3633 19.2536 14.6402 19.2167 15.5817C19.1798 16.4494 19.0321 16.911 18.9029 17.2248C18.7367 17.631 18.5521 17.9264 18.2383 18.2402C17.9244 18.5541 17.629 18.7387 17.2229 18.9048C16.909 19.0341 16.4475 19.1633 15.5798 19.2187C14.6383 19.2556 14.3613 19.2741 11.9983 19.2741C9.63518 19.2741 9.35826 19.2556 8.41672 19.2187C7.54903 19.1817 7.08749 19.0341 6.77364 18.9048C6.36749 18.7387 6.0721 18.5541 5.75826 18.2402C5.44441 17.9264 5.2598 17.631 5.09364 17.2248C4.96441 16.911 4.83518 16.4494 4.7798 15.5817C4.74287 14.6402 4.72441 14.3633 4.72441 12.0002C4.72441 9.63713 4.72441 9.36021 4.7798 8.41867C4.81672 7.55098 4.96441 7.08944 5.09364 6.77559C5.2598 6.36944 5.44441 6.07406 5.75826 5.76021C6.0721 5.44636 6.36749 5.26175 6.77364 5.09559C7.08749 4.96636 7.54903 4.83713 8.41672 4.78175C9.22903 4.74483 9.56133 4.72636 11.2044 4.72636ZM16.7244 6.20329C16.1336 6.20329 15.6536 6.68329 15.6536 7.27406C15.6536 7.86483 16.1336 8.34483 16.7244 8.34483C17.3152 8.34483 17.7952 7.86483 17.7952 7.27406C17.7952 6.68329 17.3152 6.20329 16.7244 6.20329ZM11.9983 7.44021C9.48749 7.44021 7.43826 9.47098 7.43826 12.0002C7.43826 14.5294 9.46903 16.5417 11.9983 16.5417C14.509 16.5417 16.5398 14.511 16.5398 12.0002C16.5398 9.48944 14.509 7.44021 11.9983 7.44021ZM11.9983 9.04636C13.6229 9.04636 14.9521 10.3756 14.9521 12.0002C14.9521 13.6248 13.6229 14.9541 11.9983 14.9541C10.3736 14.9541 9.04441 13.6248 9.04441 12.0002C9.04441 10.3756 10.3736 9.04636 11.9983 9.04636Z" fill="white"/>
</g>
<defs>
<radialGradient id="paint0_radial_666_12625" cx="0" cy="0" r="1" gradientUnits="userSpaceOnUse" gradientTransform="translate(6.37623 25.8517) rotate(-90) scale(23.784 22.1268)">
<stop stop-color="#FFDD55"/>
<stop offset="0.1" stop-color="#FFDD55"/>
<stop offset="0.5" stop-color="#FF543E"/>
<stop offset="1" stop-color="#C837AB"/>
</radialGradient>
<radialGradient id="paint1_radial_666_12625" cx="0" cy="0" r="1" gradientUnits="userSpaceOnUse" gradientTransform="translate(-4.0214 1.72583) rotate(78.6799) scale(10.6312 43.8348)">
<stop stop-color="#3771C8"/>
<stop offset="0.128" stop-color="#3771C8"/>
<stop offset="1" stop-color="#6600FF" stop-opacity="0"/>
</radialGradient>
<clipPath id="clip0_666_12625">
<rect width="24" height="24" fill="white"/>
</clipPath>
</defs>
</svg>
