<svg width="33" height="33" viewBox="0 0 33 33" fill="none" xmlns="http://www.w3.org/2000/svg">
<path d="M31.5023 16.0012C31.5023 24.5622 24.5622 31.5023 16.0012 31.5023C7.44011 31.5023 0.5 24.5622 0.5 16.0012C0.5 7.44011 7.44011 0.5 16.0012 0.5C24.5622 0.5 31.5023 7.44011 31.5023 16.0012Z" fill="#0075C9" stroke="#0075C9"/>
<path d="M16 8C13.8333 8 13.55 8.01667 12.7 8.05C11.85 8.08333 11.2667 8.21667 10.75 8.41667C10.2167 8.61667 9.78333 8.9 9.33333 9.33333C8.88333 9.78333 8.61667 10.2167 8.41667 10.75C8.21667 11.2667 8.08333 11.8333 8.05 12.7C8.01667 13.55 8 13.8333 8 16C8 18.1667 8.01667 18.45 8.05 19.3C8.08333 20.15 8.21667 20.7333 8.41667 21.25C8.61667 21.7833 8.9 22.2167 9.33333 22.6667C9.78333 23.1167 10.2167 23.3833 10.75 23.5833C11.2667 23.7833 11.8333 23.9167 12.7 23.95C13.55 23.9833 13.8333 24 16 24C18.1667 24 18.45 23.9833 19.3 23.95C20.15 23.9167 20.7333 23.7833 21.25 23.5833C21.7833 23.3833 22.2167 23.1 22.6667 22.6667C23.1167 22.2167 23.3833 21.7833 23.5833 21.25C23.7833 20.7333 23.9167 20.1667 23.95 19.3C23.9833 18.45 24 18.1667 24 16C24 13.8333 23.9833 13.55 23.95 12.7C23.9167 11.85 23.7667 11.2667 23.5833 10.75C23.3833 10.2167 23.1 9.78333 22.6667 9.33333C22.2167 8.88333 21.7833 8.61667 21.25 8.41667C20.7333 8.21667 20.15 8.08333 19.3 8.05C18.45 8.01667 18.1667 8 16 8ZM15.2833 9.43333C15.5 9.43333 15.7333 9.43333 16 9.43333C18.1333 9.43333 18.3833 9.43333 19.2333 9.48333C20.0167 9.51667 20.4333 9.65 20.7167 9.76667C21.0833 9.91667 21.35 10.0833 21.6333 10.3667C21.9167 10.65 22.0833 10.9167 22.2333 11.2833C22.35 11.5667 22.4667 11.9833 22.5167 12.7667C22.55 13.6167 22.5667 13.8667 22.5667 16C22.5667 18.1333 22.55 18.3833 22.5167 19.2333C22.4833 20.0167 22.35 20.4333 22.2333 20.7167C22.0833 21.0833 21.9167 21.35 21.6333 21.6333C21.35 21.9167 21.0833 22.0833 20.7167 22.2333C20.4333 22.35 20.0167 22.4667 19.2333 22.5167C18.3833 22.55 18.1333 22.5667 16 22.5667C13.8667 22.5667 13.6167 22.55 12.7667 22.5167C11.9833 22.4833 11.5667 22.35 11.2833 22.2333C10.9167 22.0833 10.65 21.9167 10.3667 21.6333C10.0833 21.35 9.91667 21.0833 9.76667 20.7167C9.65 20.4333 9.53333 20.0167 9.48333 19.2333C9.45 18.3833 9.43333 18.1333 9.43333 16C9.43333 13.8667 9.43333 13.6167 9.48333 12.7667C9.51667 11.9833 9.65 11.5667 9.76667 11.2833C9.91667 10.9167 10.0833 10.65 10.3667 10.3667C10.65 10.0833 10.9167 9.91667 11.2833 9.76667C11.5667 9.65 11.9833 9.53333 12.7667 9.48333C13.5 9.45 13.8 9.43333 15.2833 9.43333ZM20.2667 10.7667C19.7333 10.7667 19.3 11.2 19.3 11.7333C19.3 12.2667 19.7333 12.7 20.2667 12.7C20.8 12.7 21.2333 12.2667 21.2333 11.7333C21.2333 11.2 20.8 10.7667 20.2667 10.7667ZM16 11.8833C13.7333 11.8833 11.8833 13.7167 11.8833 16C11.8833 18.2833 13.7167 20.1 16 20.1C18.2667 20.1 20.1 18.2667 20.1 16C20.1 13.7333 18.2667 11.8833 16 11.8833ZM16 13.3333C17.4667 13.3333 18.6667 14.5333 18.6667 16C18.6667 17.4667 17.4667 18.6667 16 18.6667C14.5333 18.6667 13.3333 17.4667 13.3333 16C13.3333 14.5333 14.5333 13.3333 16 13.3333Z" fill="white"/>
</svg>
