<svg width="33" height="33" viewBox="0 0 33 33" fill="none" xmlns="http://www.w3.org/2000/svg">
<path d="M9.91071 10.8527C10.9672 10.8527 11.837 9.98283 11.837 8.92634C11.837 7.86984 10.9672 7 9.91071 7C8.85421 7 7.98438 7.86984 7.98438 8.92634C7.98438 9.98283 8.85421 10.8527 9.91071 10.8527Z" fill="white"/>
<path d="M11.5706 12.3125H8.24805V23.0007H11.5706V12.3125Z" fill="white"/>
<path d="M16.9751 17.7142C16.9751 16.3218 17.2401 14.9703 18.9686 14.9703C20.6709 14.9703 20.6933 16.5644 20.6933 17.8038V23.0005H24.0122V17.1356C24.0122 14.2573 23.3925 12.0435 20.0288 12.0435C18.7446 11.995 17.5351 12.6595 16.8855 13.7682H16.8407V12.3123H13.6562V23.0005H16.9751V17.7142Z" fill="white"/>
<path d="M31.5023 16.0012C31.5023 24.5622 24.5622 31.5023 16.0012 31.5023C7.44011 31.5023 0.5 24.5622 0.5 16.0012C0.5 7.44011 7.44011 0.5 16.0012 0.5C24.5622 0.5 31.5023 7.44011 31.5023 16.0012Z" stroke="white"/>
</svg>
