<svg width="33" height="33" viewBox="0 0 33 33" fill="none" xmlns="http://www.w3.org/2000/svg">
<path d="M9.91071 10.8527C10.9672 10.8527 11.837 9.98283 11.837 8.92634C11.837 7.86984 10.9672 7 9.91071 7C8.85421 7 7.98438 7.86984 7.98438 8.92634C7.98438 9.98283 8.85421 10.8527 9.91071 10.8527Z" fill="#0075C9"/>
<path d="M11.5716 12.3125H8.24902V23.0007H11.5716V12.3125Z" fill="#0075C9"/>
<path d="M16.9741 17.7142C16.9741 16.3218 17.2392 14.9703 18.9676 14.9703C20.67 14.9703 20.6924 16.5644 20.6924 17.8038V23.0005H24.0112V17.1356C24.0112 14.2573 23.3915 12.0435 20.0279 12.0435C18.7436 11.995 17.5341 12.6595 16.8845 13.7682H16.8397V12.3123H13.6553V23.0005H16.9741V17.7142Z" fill="#0075C9"/>
<path d="M31.5023 16.0012C31.5023 24.5622 24.5622 31.5023 16.0012 31.5023C7.44011 31.5023 0.5 24.5622 0.5 16.0012C0.5 7.44011 7.44011 0.5 16.0012 0.5C24.5622 0.5 31.5023 7.44011 31.5023 16.0012Z" stroke="#0075C9"/>
</svg>
