<svg width="24" height="24" viewBox="0 0 24 24" fill="none" xmlns="http://www.w3.org/2000/svg">
<g clip-path="url(#clip0_665_240)">
<path d="M22.224 0.000136629H1.772C0.812 -0.00786337 0.012 0.772137 0 1.73214V22.2681C0.012 23.2281 0.812 24.0121 1.772 24.0001H22.224C23.188 24.0121 23.988 23.2321 24 22.2681V1.73214C23.988 0.768137 23.184 -0.0118634 22.224 0.000136629Z" fill="#0A66C2"/>
<path d="M5.47611 7.55573C6.60811 7.55573 7.54011 6.62373 7.54011 5.49173C7.54011 4.35973 6.60811 3.42773 5.47611 3.42773C4.34411 3.42773 3.41211 4.35973 3.41211 5.49173C3.41211 6.62373 4.34411 7.55573 5.47611 7.55573Z" fill="white"/>
<path d="M7.25531 9.11914H3.69531V20.5711H7.25531V9.11914Z" fill="white"/>
<path d="M13.0443 14.9068C13.0443 13.4148 13.3283 11.9668 15.1803 11.9668C17.0043 11.9668 17.0283 13.6748 17.0283 15.0028V20.5708H20.5843V14.2868C20.5843 11.2028 19.9203 8.83079 16.3163 8.83079C14.9403 8.77879 13.6443 9.49079 12.9483 10.6788H12.9003V9.11879H9.48828V20.5708H13.0443V14.9068Z" fill="white"/>
</g>
<defs>
<clipPath id="clip0_665_240">
<rect width="24" height="24" fill="white"/>
</clipPath>
</defs>
</svg>
