<svg width="33" height="33" viewBox="0 0 33 33" fill="none" xmlns="http://www.w3.org/2000/svg">
<mask id="path-1-inside-1_663_2881" fill="white">
<path fill-rule="evenodd" clip-rule="evenodd" d="M32.0023 16.0012C32.0023 24.8384 24.8384 32.0023 16.0012 32.0023C7.16397 32.0023 0 24.8384 0 16.0012C0 7.16397 7.16397 0 16.0012 0C24.8384 0 32.0023 7.16397 32.0023 16.0012ZM11.837 8.92634C11.837 9.98283 10.9672 10.8527 9.91071 10.8527C8.85421 10.8527 7.98438 9.98283 7.98438 8.92634C7.98438 7.86984 8.85421 7 9.91071 7C10.9672 7 11.837 7.86984 11.837 8.92634ZM8.24869 12.3118H11.5712V23H8.24869V12.3118ZM16.9741 17.7134C16.9741 16.3209 17.2392 14.9695 18.9676 14.9695C20.67 14.9695 20.6924 16.5636 20.6924 17.803V22.9997H24.0112V17.1348C24.0112 14.2565 23.3915 12.0427 20.0279 12.0427C18.7436 11.9942 17.5341 12.6587 16.8845 13.7674H16.8397V12.3115H13.6553V22.9997H16.9741V17.7134Z"/>
</mask>
<path fill-rule="evenodd" clip-rule="evenodd" d="M32.0023 16.0012C32.0023 24.8384 24.8384 32.0023 16.0012 32.0023C7.16397 32.0023 0 24.8384 0 16.0012C0 7.16397 7.16397 0 16.0012 0C24.8384 0 32.0023 7.16397 32.0023 16.0012ZM11.837 8.92634C11.837 9.98283 10.9672 10.8527 9.91071 10.8527C8.85421 10.8527 7.98438 9.98283 7.98438 8.92634C7.98438 7.86984 8.85421 7 9.91071 7C10.9672 7 11.837 7.86984 11.837 8.92634ZM8.24869 12.3118H11.5712V23H8.24869V12.3118ZM16.9741 17.7134C16.9741 16.3209 17.2392 14.9695 18.9676 14.9695C20.67 14.9695 20.6924 16.5636 20.6924 17.803V22.9997H24.0112V17.1348C24.0112 14.2565 23.3915 12.0427 20.0279 12.0427C18.7436 11.9942 17.5341 12.6587 16.8845 13.7674H16.8397V12.3115H13.6553V22.9997H16.9741V17.7134Z" fill="white"/>
<path d="M11.5712 12.3118H12.5712V11.3118H11.5712V12.3118ZM8.24869 12.3118V11.3118H7.24869V12.3118H8.24869ZM11.5712 23V24H12.5712V23H11.5712ZM8.24869 23H7.24869V24H8.24869V23ZM20.6924 22.9997H19.6924V23.9997H20.6924V22.9997ZM24.0112 22.9997V23.9997H25.0112V22.9997H24.0112ZM20.0279 12.0427L19.9901 13.042L20.009 13.0427H20.0279V12.0427ZM16.8845 13.7674V14.7674H17.4576L17.7473 14.2729L16.8845 13.7674ZM16.8397 13.7674H15.8397V14.7674H16.8397V13.7674ZM16.8397 12.3115H17.8397V11.3115H16.8397V12.3115ZM13.6553 12.3115V11.3115H12.6553V12.3115H13.6553ZM13.6553 22.9997H12.6553V23.9997H13.6553V22.9997ZM16.9741 22.9997V23.9997H17.9741V22.9997H16.9741ZM16.0012 33.0023C25.3907 33.0023 33.0023 25.3907 33.0023 16.0012H31.0023C31.0023 24.2861 24.2861 31.0023 16.0012 31.0023V33.0023ZM-1 16.0012C-1 25.3907 6.61168 33.0023 16.0012 33.0023V31.0023C7.71625 31.0023 1 24.2861 1 16.0012H-1ZM16.0012 -1C6.61168 -1 -1 6.61168 -1 16.0012H1C1 7.71625 7.71625 1 16.0012 1V-1ZM33.0023 16.0012C33.0023 6.61168 25.3907 -1 16.0012 -1V1C24.2861 1 31.0023 7.71625 31.0023 16.0012H33.0023ZM9.91071 11.8527C11.5195 11.8527 12.837 10.5351 12.837 8.92634H10.837C10.837 9.43055 10.4149 9.85267 9.91071 9.85267V11.8527ZM6.98438 8.92634C6.98438 10.5351 8.30193 11.8527 9.91071 11.8527V9.85267C9.4065 9.85267 8.98438 9.43055 8.98438 8.92634H6.98438ZM9.91071 6C8.30193 6 6.98438 7.31755 6.98438 8.92634H8.98438C8.98438 8.42212 9.4065 8 9.91071 8V6ZM12.837 8.92634C12.837 7.31755 11.5195 6 9.91071 6V8C10.4149 8 10.837 8.42212 10.837 8.92634H12.837ZM11.5712 11.3118H8.24869V13.3118H11.5712V11.3118ZM12.5712 23V12.3118H10.5712V23H12.5712ZM8.24869 24H11.5712V22H8.24869V24ZM7.24869 12.3118V23H9.24869V12.3118H7.24869ZM18.9676 13.9695C18.4053 13.9695 17.8895 14.0799 17.4423 14.3277C16.9894 14.5787 16.6671 14.9373 16.447 15.3364C16.0327 16.0876 15.9741 16.9985 15.9741 17.7134H17.9741C17.9741 17.0359 18.048 16.5748 18.1983 16.3022C18.2606 16.1893 18.3287 16.1231 18.4116 16.0771C18.5002 16.028 18.6657 15.9695 18.9676 15.9695V13.9695ZM21.6924 17.803C21.6924 17.2278 21.6996 16.3173 21.3986 15.5544C21.2367 15.1441 20.969 14.7265 20.5282 14.4184C20.0852 14.1087 19.553 13.9695 18.9676 13.9695V15.9695C19.2334 15.9695 19.3424 16.0296 19.3824 16.0576C19.4246 16.0871 19.4817 16.1454 19.5382 16.2885C19.6739 16.6325 19.6924 17.1388 19.6924 17.803H21.6924ZM21.6924 22.9997V17.803H19.6924V22.9997H21.6924ZM24.0112 21.9997H20.6924V23.9997H24.0112V21.9997ZM23.0112 17.1348V22.9997H25.0112V17.1348H23.0112ZM20.0279 13.0427C21.4633 13.0427 22.0889 13.4934 22.4348 14.0424C22.8475 14.6974 23.0112 15.7174 23.0112 17.1348H25.0112C25.0112 15.6739 24.8651 14.1478 24.127 12.9763C23.3221 11.6988 21.9561 11.0427 20.0279 11.0427V13.0427ZM17.7473 14.2729C18.211 13.4815 19.0748 13.0074 19.9901 13.042L20.0656 11.0434C18.4125 10.9809 16.8572 11.8358 16.0217 13.2619L17.7473 14.2729ZM16.8397 14.7674H16.8845V12.7674H16.8397V14.7674ZM15.8397 12.3115V13.7674H17.8397V12.3115H15.8397ZM13.6553 13.3115H16.8397V11.3115H13.6553V13.3115ZM14.6553 22.9997V12.3115H12.6553V22.9997H14.6553ZM16.9741 21.9997H13.6553V23.9997H16.9741V21.9997ZM15.9741 17.7134V22.9997H17.9741V17.7134H15.9741Z" fill="white" mask="url(#path-1-inside-1_663_2881)"/>
</svg>
