<svg width="180" height="38" viewBox="0 0 180 38" fill="none" xmlns="http://www.w3.org/2000/svg">
<path d="M32.1131 0H0V4.14485H32.1131V0Z" fill="white"/>
<path d="M0 8.73047V12.874H10.4057V34.1845L14.5533 37.6749V12.874V8.73047H10.4057H0Z" fill="white"/>
<path d="M32.1132 8.73047H17.5586V12.8753H32.1132V8.73047Z" fill="white"/>
<path d="M28.2643 18.1152H17.5586V22.2587H28.2643V18.1152Z" fill="white"/>
<path d="M55.1745 0V3.07686H49.7868V21.5353H46.708V3.07686H41.3203V0H55.1745Z" fill="white"/>
<path d="M71.3551 9.22923V12.3061H62.1199V18.4585H71.3551V21.5353H59.041V0H71.3551V3.07686H62.1199V9.22923H71.3551Z" fill="white"/>
<path d="M78.2996 16.1511C78.2996 17.6889 79.0696 18.4585 80.6084 18.4585H87.5348V21.5353H80.6084C77.0166 21.5353 75.2207 19.7406 75.2207 16.1511V5.38416C75.2207 1.79472 77.0166 0 80.6084 0H87.5348V3.07686H80.6084C79.0696 3.07686 78.2996 3.8464 78.2996 5.38416V16.1511Z" fill="white"/>
<path d="M94.4812 0V9.22923H102.178V0H105.257V21.5353H102.178V12.3061H94.4812V21.5353H91.4023V0H94.4812Z" fill="white"/>
<path d="M121.435 9.22923V12.3061H112.2V21.5353H109.121V0H121.435V3.07686H112.2V9.22923H121.435Z" fill="white"/>
<path d="M128.378 0V21.5353H125.299V0H128.378Z" fill="white"/>
<path d="M140.713 0C144.305 0 146.101 1.79472 146.101 5.38416V16.1525C146.101 19.7419 144.305 21.5366 140.713 21.5366H132.248V0H140.713ZM143.022 5.38416C143.022 3.8464 142.252 3.07685 140.713 3.07685H135.326V18.4598H140.713C142.252 18.4598 143.022 17.6902 143.022 16.1525V5.38416Z" fill="white"/>
<path d="M162.281 9.22923V12.3061H153.046V18.4585H162.281V21.5353H149.967V0H162.281V3.07686H153.046V9.22923H162.281Z" fill="white"/>
<path d="M166.148 21.5353V18.4585H174.613C176.152 18.4585 176.922 17.6889 176.922 16.1511V14.6134C176.922 13.0756 176.152 12.3061 174.613 12.3061H171.534C167.942 12.3061 166.146 10.5114 166.146 6.92192V5.38416C166.146 1.79472 167.942 0 171.534 0H179.999V3.07686H171.534C169.995 3.07686 169.225 3.8464 169.225 5.38416V6.92192C169.225 8.45968 169.995 9.22923 171.534 9.22923H174.613C178.205 9.22923 180.001 11.0239 180.001 14.6134V16.1511C180.001 19.7406 178.205 21.5353 174.613 21.5353H166.148Z" fill="white"/>
<path d="M50.1212 34.2149H53.5844V35.3685H48.9668V27.293H50.1212V34.2149Z" fill="white"/>
<path d="M56.1896 32.9441V33.3483C56.1896 33.9251 56.4788 34.2142 57.056 34.2142H59.3648V35.3679H57.056C55.7088 35.3679 55.0352 34.6947 55.0352 33.3483V31.6178C55.0352 30.2715 55.7088 29.5996 57.056 29.5996H57.6332C58.9805 29.5996 59.6541 30.2728 59.6541 31.6178V32.9441H56.1896ZM56.1896 32.022H58.4984V31.6178C58.4984 31.041 58.2091 30.7533 57.6319 30.7533H57.0547C56.4775 30.7533 56.1882 31.041 56.1882 31.6178V32.022H56.1896Z" fill="white"/>
<path d="M63.1211 33.349C63.1211 33.9258 63.4104 34.2149 63.9876 34.2149H64.5648V35.3685H63.9876C62.6403 35.3685 61.9667 34.6954 61.9667 33.349V30.7539H61.1016V29.6003H61.9667V27.8698L63.1211 27.293V29.6003H64.5648V30.7539H63.1211V33.349Z" fill="white"/>
<path d="M67.7472 27.291L67.17 29.0215H66.0156L66.5928 27.291H67.7472Z" fill="white"/>
<path d="M69.1967 35.3679V34.2142H71.7934C72.1778 34.2142 72.3706 34.0215 72.3706 33.6374C72.3706 33.2145 72.1778 33.003 71.7934 33.003H70.9269C69.7725 33.003 69.1953 32.4449 69.1953 31.3301C69.1953 30.1764 69.7725 29.5996 70.9269 29.5996H73.525V30.7533H70.9269C70.5426 30.7533 70.3497 30.946 70.3497 31.3301C70.3497 31.6767 70.5426 31.8494 70.9269 31.8494H71.7934C72.9478 31.8494 73.525 32.4449 73.525 33.6374C73.525 34.7911 72.9478 35.3679 71.7934 35.3679H69.1967Z" fill="white"/>
<path d="M80.7554 27.291C82.1026 27.291 82.7749 27.9642 82.7749 29.3106V33.3484C82.7749 34.6947 82.1013 35.3679 80.7554 35.3679H77.5801V27.2924H80.7554V27.291ZM81.6205 29.3106C81.6205 28.7337 81.3326 28.4447 80.7554 28.4447H78.7345V34.2129H80.7554C81.3326 34.2129 81.6205 33.9252 81.6205 33.347V29.3106Z" fill="white"/>
<path d="M85.379 32.9441V33.3483C85.379 33.9251 85.667 34.2142 86.2442 34.2142H88.553V35.3679H86.2442C84.8969 35.3679 84.2246 34.6947 84.2246 33.3483V31.6178C84.2246 30.2715 84.8982 29.5996 86.2442 29.5996H86.8214C88.1686 29.5996 88.8422 30.2728 88.8422 31.6178V32.9441H85.379ZM85.379 32.022H87.6878V31.6178C87.6878 31.041 87.3986 30.7533 86.8214 30.7533H86.2442C85.667 30.7533 85.379 31.041 85.379 31.6178V32.022Z" fill="white"/>
<path d="M93.0051 35.3679H91.6203L90.0039 29.5996H91.1583L92.3127 33.9265L93.4671 29.5996H94.6215L93.0051 35.3679Z" fill="white"/>
<path d="M96.9376 32.9441V33.3483C96.9376 33.9251 97.2255 34.2142 97.8041 34.2142H100.113V35.3679H97.8041C96.4568 35.3679 95.7832 34.6947 95.7832 33.3483V31.6178C95.7832 30.2715 96.4568 29.5996 97.8041 29.5996H98.3813C99.7285 29.5996 100.402 30.2728 100.402 31.6178V32.9441H96.9376ZM96.9376 32.022H99.2464V31.6178C99.2464 31.041 98.9585 30.7533 98.3799 30.7533H97.8027C97.2255 30.7533 96.9363 31.041 96.9363 31.6178V32.022H96.9376Z" fill="white"/>
<path d="M103.006 27.291V35.3666H101.852V27.291H103.006Z" fill="white"/>
<path d="M109.073 33.6374C109.073 34.7911 108.495 35.3679 107.341 35.3679H106.187C105.032 35.3679 104.455 34.7911 104.455 33.6374V31.3301C104.455 30.1764 105.032 29.5996 106.187 29.5996H107.341C108.495 29.5996 109.073 30.1764 109.073 31.3301V33.6374ZM105.609 33.6374C105.609 34.0215 105.802 34.2142 106.187 34.2142H107.341C107.725 34.2142 107.918 34.0215 107.918 33.6374V31.3301C107.918 30.9835 107.725 30.8108 107.341 30.8108H106.187C105.802 30.8108 105.609 30.9835 105.609 31.3301V33.6374Z" fill="white"/>
<path d="M111.678 37.6752H110.523V29.5996H111.505L111.678 30.0613C111.832 29.7535 112.216 29.5996 112.832 29.5996H113.409C114.564 29.5996 115.141 30.1764 115.141 31.3301V33.6374C115.141 34.791 114.564 35.3679 113.409 35.3679H112.832C112.216 35.3679 111.832 35.214 111.678 34.9061V37.6752ZM112.832 30.7533C112.216 30.7533 111.832 30.8496 111.678 31.041V33.9251C111.832 34.1179 112.216 34.2129 112.832 34.2129H113.409C113.794 34.2129 113.987 34.0202 113.987 33.6361V31.3288C113.987 30.9446 113.794 30.7519 113.409 30.7519H112.832V30.7533Z" fill="white"/>
<path d="M124.39 27.291V28.4447H122.369V35.3666H121.214V28.4447H119.193V27.291H124.39Z" fill="white"/>
<path d="M126.994 35.3685H125.84V27.293H126.994V30.1771C127.379 29.793 127.861 29.6003 128.437 29.6003C129.784 29.6003 130.457 30.2735 130.457 31.6185V35.3685H129.303V31.6185C129.303 31.0417 129.015 30.7539 128.437 30.7539C127.859 30.7539 127.379 30.8503 126.994 31.0417V35.3685Z" fill="white"/>
<path d="M133.063 32.9441V33.3483C133.063 33.9251 133.351 34.2142 133.929 34.2142H136.238V35.3679H133.929C132.582 35.3679 131.908 34.6947 131.908 33.3483V31.6178C131.908 30.2715 132.582 29.5996 133.929 29.5996H134.506C135.854 29.5996 136.527 30.2728 136.527 31.6178V32.9441H133.063ZM133.063 32.022H135.371V31.6178C135.371 31.041 135.083 30.7533 134.505 30.7533H133.928C133.351 30.7533 133.061 31.041 133.061 31.6178V32.022H133.063Z" fill="white"/>
<path d="M145.198 30.7539V31.9076H141.734V35.3685H140.58V27.293H145.198V28.4466H141.734V30.7539H145.198Z" fill="white"/>
<path d="M150.112 29.599H151.266V35.3673H150.284L150.112 34.7904C149.727 35.1745 149.245 35.3673 148.669 35.3673C147.322 35.3673 146.648 34.6941 146.648 33.3477V29.5977H147.803V33.3477C147.803 33.9245 148.091 34.2136 148.669 34.2136C149.247 34.2136 149.727 34.1172 150.112 33.9259V29.599Z" fill="white"/>
<path d="M154.736 33.349C154.736 33.9258 155.024 34.2149 155.602 34.2149H156.179V35.3685H155.602C154.255 35.3685 153.581 34.6954 153.581 33.349V30.7539H152.715V29.6003H153.581V27.8698L154.736 27.293V29.6003H156.178V30.7539H154.736V33.349Z" fill="white"/>
<path d="M161.092 29.599H162.247V35.3673H161.265L161.092 34.7904C160.708 35.1745 160.227 35.3673 159.65 35.3673C158.303 35.3673 157.629 34.6941 157.629 33.3477V29.5977H158.783V33.3477C158.783 33.9245 159.073 34.2136 159.65 34.2136C160.227 34.2136 160.708 34.1172 161.092 33.9259V29.599Z" fill="white"/>
<path d="M164.85 35.3679H163.695V29.5996H164.677L164.85 30.1764C165.234 29.7923 165.715 29.5996 166.292 29.5996H166.58V30.7533H166.292C165.715 30.7533 165.234 30.8496 164.85 31.041V35.3679Z" fill="white"/>
<path d="M168.897 32.9441V33.3483C168.897 33.9251 169.185 34.2142 169.763 34.2142H172.072V35.3679H169.763C168.416 35.3679 167.742 34.6947 167.742 33.3483V31.6178C167.742 30.2715 168.416 29.5996 169.763 29.5996H170.34C171.688 29.5996 172.36 30.2728 172.36 31.6178V32.9441H168.897ZM168.897 32.022H171.205V31.6178C171.205 31.041 170.917 30.7533 170.34 30.7533H169.763C169.186 30.7533 168.897 31.041 168.897 31.6178V32.022Z" fill="white"/>
</svg>
