<svg width="180" height="38" viewBox="0 0 180 38" fill="none" xmlns="http://www.w3.org/2000/svg">
<path d="M32.1131 0H0V4.14485H32.1131V0Z" fill="#0075C9"/>
<path d="M0 8.73047V12.874H10.4057V34.1845L14.5533 37.6749V12.874V8.73047H10.4057H0Z" fill="#0075C9"/>
<path d="M32.1132 8.73047H17.5586V12.8753H32.1132V8.73047Z" fill="#0075C9"/>
<path d="M28.2643 18.1152H17.5586V22.2587H28.2643V18.1152Z" fill="#0075C9"/>
<path d="M55.1745 0V3.07686H49.7868V21.5353H46.708V3.07686H41.3203V0H55.1745Z" fill="#003056"/>
<path d="M71.3531 9.22923V12.3061H62.1179V18.4585H71.3531V21.5353H59.0391V0H71.3531V3.07686H62.1179V9.22923H71.3531V9.22923Z" fill="#003056"/>
<path d="M78.3015 16.1511C78.3015 17.6889 79.0716 18.4585 80.6103 18.4585H87.5367V21.5353H80.6103C77.0185 21.5353 75.2227 19.7406 75.2227 16.1511V5.38416C75.2227 1.79472 77.0185 0 80.6103 0H87.5367V3.07686H80.6103C79.0716 3.07686 78.3015 3.8464 78.3015 5.38416V16.1511V16.1511Z" fill="#003056"/>
<path d="M94.4812 0V9.22923H102.178V0H105.257V21.5353H102.178V12.3061H94.4812V21.5353H91.4023V0H94.4812Z" fill="#003056"/>
<path d="M121.435 9.22923V12.3061H112.2V21.5353H109.121V0H121.435V3.07686H112.2V9.22923H121.435V9.22923Z" fill="#003056"/>
<path d="M128.38 0V21.5353H125.301V0H128.38Z" fill="#003056"/>
<path d="M140.711 0C144.303 0 146.099 1.79472 146.099 5.38416V16.1525C146.099 19.7419 144.303 21.5366 140.711 21.5366H132.246V0H140.711ZM143.02 5.38416C143.02 3.8464 142.25 3.07686 140.711 3.07686H135.324V18.4598H140.711C142.25 18.4598 143.02 17.6902 143.02 16.1525V5.38416Z" fill="#003056"/>
<path d="M162.279 9.22923V12.3061H153.044V18.4585H162.279V21.5353H149.965V0H162.279V3.07686H153.044V9.22923H162.279V9.22923Z" fill="#003056"/>
<path d="M166.146 21.5353V18.4585H174.611C176.15 18.4585 176.92 17.6889 176.92 16.1511V14.6134C176.92 13.0756 176.15 12.3061 174.611 12.3061H171.532C167.94 12.3061 166.145 10.5114 166.145 6.92192V5.38416C166.145 1.79472 167.94 0 171.532 0H179.997V3.07686H171.532C169.993 3.07686 169.223 3.8464 169.223 5.38416V6.92192C169.223 8.45968 169.993 9.22923 171.532 9.22923H174.611C178.203 9.22923 179.999 11.0239 179.999 14.6134V16.1511C179.999 19.7406 178.203 21.5353 174.611 21.5353H166.146Z" fill="#003056"/>
<path d="M50.1232 34.2149H53.5864V35.3685H48.9688V27.293H50.1232V34.2149Z" fill="#7E8890"/>
<path d="M56.1896 32.9441V33.3483C56.1896 33.9251 56.4788 34.2142 57.056 34.2142H59.3648V35.3679H57.056C55.7088 35.3679 55.0352 34.6947 55.0352 33.3483V31.6178C55.0352 30.2715 55.7088 29.5996 57.056 29.5996H57.6332C58.9805 29.5996 59.6541 30.2728 59.6541 31.6178V32.9441H56.1896V32.9441ZM56.1896 32.022H58.4984V31.6178C58.4984 31.041 58.2091 30.7533 57.6319 30.7533H57.0547C56.4775 30.7533 56.1882 31.041 56.1882 31.6178V32.022H56.1896Z" fill="#7E8890"/>
<path d="M63.125 33.349C63.125 33.9258 63.4143 34.2149 63.9915 34.2149H64.5687V35.3685H63.9915C62.6442 35.3685 61.9706 34.6954 61.9706 33.349V30.7539H61.1055V29.6003H61.9706V27.8698L63.125 27.293V29.6003H64.5687V30.7539H63.125V33.349Z" fill="#7E8890"/>
<path d="M67.7472 27.291L67.17 29.0215H66.0156L66.5928 27.291H67.7472Z" fill="#7E8890"/>
<path d="M69.2006 35.3679V34.2142H71.7973C72.1817 34.2142 72.3745 34.0215 72.3745 33.6374C72.3745 33.2145 72.1817 33.003 71.7973 33.003H70.9308C69.7764 33.003 69.1992 32.4449 69.1992 31.3301C69.1992 30.1764 69.7764 29.5996 70.9308 29.5996H73.5289V30.7533H70.9308C70.5465 30.7533 70.3536 30.946 70.3536 31.3301C70.3536 31.6767 70.5465 31.8494 70.9308 31.8494H71.7973C72.9517 31.8494 73.5289 32.4449 73.5289 33.6374C73.5289 34.7911 72.9517 35.3679 71.7973 35.3679H69.2006Z" fill="#7E8890"/>
<path d="M80.7573 27.291C82.1046 27.291 82.7768 27.9642 82.7768 29.3106V33.3484C82.7768 34.6947 82.1032 35.3679 80.7573 35.3679H77.582V27.2924H80.7573V27.291ZM81.6224 29.3106C81.6224 28.7337 81.3345 28.4447 80.7573 28.4447H78.7364V34.2129H80.7573C81.3345 34.2129 81.6224 33.9252 81.6224 33.347V29.3106Z" fill="#7E8890"/>
<path d="M85.381 32.9441V33.3483C85.381 33.9251 85.6689 34.2142 86.2461 34.2142H88.5549V35.3679H86.2461C84.8989 35.3679 84.2266 34.6947 84.2266 33.3483V31.6178C84.2266 30.2715 84.9002 29.5996 86.2461 29.5996H86.8233C88.1706 29.5996 88.8442 30.2728 88.8442 31.6178V32.9441H85.381V32.9441ZM85.381 32.022H87.6898V31.6178C87.6898 31.041 87.4005 30.7533 86.8233 30.7533H86.2461C85.6689 30.7533 85.381 31.041 85.381 31.6178V32.022V32.022Z" fill="#7E8890"/>
<path d="M93.009 35.3679H91.6242L90.0078 29.5996H91.1622L92.3166 33.9265L93.471 29.5996H94.6254L93.009 35.3679Z" fill="#7E8890"/>
<path d="M96.9396 32.9441V33.3483C96.9396 33.9251 97.2275 34.2142 97.806 34.2142H100.115V35.3679H97.806C96.4588 35.3679 95.7852 34.6947 95.7852 33.3483V31.6178C95.7852 30.2715 96.4588 29.5996 97.806 29.5996H98.3832C99.7305 29.5996 100.404 30.2728 100.404 31.6178V32.9441H96.9396V32.9441ZM96.9396 32.022H99.2484V31.6178C99.2484 31.041 98.9604 30.7533 98.3819 30.7533H97.8047C97.2275 30.7533 96.9382 31.041 96.9382 31.6178V32.022H96.9396Z" fill="#7E8890"/>
<path d="M103.006 27.291V35.3666H101.852V27.291H103.006Z" fill="#7E8890"/>
<path d="M109.075 33.6374C109.075 34.7911 108.497 35.3679 107.343 35.3679H106.189C105.034 35.3679 104.457 34.7911 104.457 33.6374V31.3301C104.457 30.1764 105.034 29.5996 106.189 29.5996H107.343C108.497 29.5996 109.075 30.1764 109.075 31.3301V33.6374ZM105.611 33.6374C105.611 34.0215 105.804 34.2142 106.189 34.2142H107.343C107.727 34.2142 107.92 34.0215 107.92 33.6374V31.3301C107.92 30.9835 107.727 30.8108 107.343 30.8108H106.189C105.804 30.8108 105.611 30.9835 105.611 31.3301V33.6374Z" fill="#7E8890"/>
<path d="M111.682 37.6752H110.527V29.5996H111.509L111.682 30.0613C111.836 29.7535 112.22 29.5996 112.836 29.5996H113.413C114.568 29.5996 115.145 30.1764 115.145 31.3301V33.6374C115.145 34.791 114.568 35.3679 113.413 35.3679H112.836C112.22 35.3679 111.836 35.214 111.682 34.9061V37.6752V37.6752ZM112.836 30.7533C112.22 30.7533 111.836 30.8496 111.682 31.041V33.9251C111.836 34.1179 112.22 34.2129 112.836 34.2129H113.413C113.798 34.2129 113.991 34.0202 113.991 33.6361V31.3288C113.991 30.9446 113.798 30.7519 113.413 30.7519H112.836V30.7533Z" fill="#7E8890"/>
<path d="M124.391 27.291V28.4447H122.371V35.3666H121.216V28.4447H119.195V27.291H124.391Z" fill="#7E8890"/>
<path d="M126.998 35.3685H125.844V27.293H126.998V30.1771C127.383 29.793 127.865 29.6003 128.44 29.6003C129.788 29.6003 130.461 30.2735 130.461 31.6185V35.3685H129.307V31.6185C129.307 31.0417 129.019 30.7539 128.44 30.7539C127.863 30.7539 127.383 30.8503 126.998 31.0417V35.3685Z" fill="#7E8890"/>
<path d="M133.065 32.9441V33.3483C133.065 33.9251 133.352 34.2142 133.931 34.2142H136.24V35.3679H133.931C132.584 35.3679 131.91 34.6947 131.91 33.3483V31.6178C131.91 30.2715 132.584 29.5996 133.931 29.5996H134.508C135.855 29.5996 136.529 30.2728 136.529 31.6178V32.9441H133.065V32.9441ZM133.065 32.022H135.373V31.6178C135.373 31.041 135.085 30.7533 134.507 30.7533H133.93C133.352 30.7533 133.063 31.041 133.063 31.6178V32.022H133.065Z" fill="#7E8890"/>
<path d="M145.2 30.7539V31.9076H141.736V35.3685H140.582V27.293H145.2V28.4466H141.736V30.7539H145.2V30.7539Z" fill="#7E8890"/>
<path d="M150.112 29.599H151.266V35.3673H150.284L150.112 34.7904C149.727 35.1745 149.245 35.3673 148.669 35.3673C147.322 35.3673 146.648 34.6941 146.648 33.3477V29.5977H147.803V33.3477C147.803 33.9245 148.091 34.2136 148.669 34.2136C149.247 34.2136 149.727 34.1172 150.112 33.9259V29.599V29.599Z" fill="#7E8890"/>
<path d="M154.736 33.349C154.736 33.9258 155.024 34.2149 155.602 34.2149H156.179V35.3685H155.602C154.255 35.3685 153.581 34.6954 153.581 33.349V30.7539H152.715V29.6003H153.581V27.8698L154.736 27.293V29.6003H156.178V30.7539H154.736V33.349Z" fill="#7E8890"/>
<path d="M161.092 29.599H162.247V35.3673H161.265L161.092 34.7904C160.708 35.1745 160.227 35.3673 159.65 35.3673C158.303 35.3673 157.629 34.6941 157.629 33.3477V29.5977H158.783V33.3477C158.783 33.9245 159.073 34.2136 159.65 34.2136C160.227 34.2136 160.708 34.1172 161.092 33.9259V29.599V29.599Z" fill="#7E8890"/>
<path d="M164.854 35.3679H163.699V29.5996H164.681L164.854 30.1764C165.238 29.7923 165.719 29.5996 166.296 29.5996H166.584V30.7533H166.296C165.719 30.7533 165.238 30.8496 164.854 31.041V35.3679V35.3679Z" fill="#7E8890"/>
<path d="M168.9 32.9441V33.3483C168.9 33.9251 169.188 34.2142 169.767 34.2142H172.076V35.3679H169.767C168.42 35.3679 167.746 34.6947 167.746 33.3483V31.6178C167.746 30.2715 168.42 29.5996 169.767 29.5996H170.344C171.691 29.5996 172.364 30.2728 172.364 31.6178V32.9441H168.9V32.9441ZM168.9 32.022H171.209V31.6178C171.209 31.041 170.921 30.7533 170.344 30.7533H169.767C169.19 30.7533 168.9 31.041 168.9 31.6178V32.022Z" fill="#7E8890"/>
</svg>
