<svg width="32" height="32" viewBox="0 0 32 32" fill="none" xmlns="http://www.w3.org/2000/svg">
<path fill-rule="evenodd" clip-rule="evenodd" d="M29.3346 8.00065C29.3346 6.53398 28.1346 5.33398 26.668 5.33398H5.33464C3.86797 5.33398 2.66797 6.53398 2.66797 8.00065V24.0007C2.66797 25.4673 3.86797 26.6673 5.33464 26.6673H26.668C28.1346 26.6673 29.3346 25.4673 29.3346 24.0007V8.00065ZM26.6679 8.00049L16.0013 14.6538L5.33459 8.00049H26.6679ZM16.0013 17.3337L5.33459 10.667V24.0003H26.6679V10.667L16.0013 17.3337Z" fill="black"/>
<mask id="mask0_665_4543" style="mask-type:alpha" maskUnits="userSpaceOnUse" x="2" y="5" width="28" height="22">
<path fill-rule="evenodd" clip-rule="evenodd" d="M29.3346 8.00065C29.3346 6.53398 28.1346 5.33398 26.668 5.33398H5.33464C3.86797 5.33398 2.66797 6.53398 2.66797 8.00065V24.0007C2.66797 25.4673 3.86797 26.6673 5.33464 26.6673H26.668C28.1346 26.6673 29.3346 25.4673 29.3346 24.0007V8.00065ZM26.6679 8.00049L16.0013 14.6538L5.33459 8.00049H26.6679ZM16.0013 17.3337L5.33459 10.667V24.0003H26.6679V10.667L16.0013 17.3337Z" fill="white"/>
</mask>
<g mask="url(#mask0_665_4543)">
<rect width="32" height="32" fill="#0074C8"/>
</g>
</svg>
