<svg width="32" height="32" viewBox="0 0 32 32" fill="none" xmlns="http://www.w3.org/2000/svg">
<path fill-rule="evenodd" clip-rule="evenodd" d="M5.33333 4H10C10.7333 4 11.3333 4.6 11.3333 5.33333C11.3333 7 11.6 8.6 12.0933 10.0933C12.24 10.56 12.1333 11.08 11.76 11.4533L8.82667 14.3867C10.7467 18.16 13.84 21.24 17.6133 23.1733L20.5467 20.24C20.8133 19.9867 21.1467 19.8533 21.4933 19.8533C21.6267 19.8533 21.7733 19.8667 21.9067 19.92C23.4 20.4133 25.0133 20.68 26.6667 20.68C27.4 20.68 28 21.28 28 22.0133V26.6667C28 27.4 27.4 28 26.6667 28C14.1467 28 4 17.8533 4 5.33333C4 4.6 4.6 4 5.33333 4ZM8.71988 6.6665C8.79988 7.85317 8.99988 9.01317 9.31988 10.1198L7.71988 11.7198C7.17321 10.1198 6.82654 8.4265 6.70654 6.6665H8.71988ZM21.8667 22.6934C23.0001 23.0134 24.1601 23.2134 25.3334 23.2934V25.28C23.5734 25.16 21.8801 24.8134 20.2667 24.28L21.8667 22.6934Z" fill="black"/>
<mask id="mask0_665_4556" style="mask-type:alpha" maskUnits="userSpaceOnUse" x="4" y="4" width="24" height="24">
<path fill-rule="evenodd" clip-rule="evenodd" d="M5.33333 4H10C10.7333 4 11.3333 4.6 11.3333 5.33333C11.3333 7 11.6 8.6 12.0933 10.0933C12.24 10.56 12.1333 11.08 11.76 11.4533L8.82667 14.3867C10.7467 18.16 13.84 21.24 17.6133 23.1733L20.5467 20.24C20.8133 19.9867 21.1467 19.8533 21.4933 19.8533C21.6267 19.8533 21.7733 19.8667 21.9067 19.92C23.4 20.4133 25.0133 20.68 26.6667 20.68C27.4 20.68 28 21.28 28 22.0133V26.6667C28 27.4 27.4 28 26.6667 28C14.1467 28 4 17.8533 4 5.33333C4 4.6 4.6 4 5.33333 4ZM8.71988 6.6665C8.79988 7.85317 8.99988 9.01317 9.31988 10.1198L7.71988 11.7198C7.17321 10.1198 6.82654 8.4265 6.70654 6.6665H8.71988ZM21.8667 22.6934C23.0001 23.0134 24.1601 23.2134 25.3334 23.2934V25.28C23.5734 25.16 21.8801 24.8134 20.2667 24.28L21.8667 22.6934Z" fill="white"/>
</mask>
<g mask="url(#mask0_665_4556)">
<rect width="32" height="32" fill="#0074C8"/>
</g>
</svg>
