<svg width="84" height="84" viewBox="0 0 84 84" fill="none" xmlns="http://www.w3.org/2000/svg">
<g clip-path="url(#clip0_665_454)">
<path d="M24.8754 33.2097C27.8603 33.2097 30.28 30.7899 30.28 27.805C30.28 24.8201 27.8603 22.4004 24.8754 22.4004C21.8904 22.4004 19.4707 24.8201 19.4707 27.805C19.4707 30.7899 21.8904 33.2097 24.8754 33.2097Z" fill="#2995D6" stroke="#0075C9" stroke-miterlimit="10"/>
<path d="M24.8754 33.2097C27.8603 33.2097 30.28 30.7899 30.28 27.805C30.28 24.8201 27.8603 22.4004 24.8754 22.4004C21.8904 22.4004 19.4707 24.8201 19.4707 27.805C19.4707 30.7899 21.8904 33.2097 24.8754 33.2097Z" fill="#2995D6" stroke="#0075C9" stroke-miterlimit="10"/>
<path d="M41.9359 32.1023C44.9208 32.1023 47.3405 29.6825 47.3405 26.6976C47.3405 23.7127 44.9208 21.293 41.9359 21.293C38.951 21.293 36.5312 23.7127 36.5312 26.6976C36.5312 29.6825 38.951 32.1023 41.9359 32.1023Z" fill="#2995D6" stroke="#0075C9" stroke-miterlimit="10"/>
<path d="M59.1254 33.2097C62.1103 33.2097 64.53 30.7899 64.53 27.805C64.53 24.8201 62.1103 22.4004 59.1254 22.4004C56.1404 22.4004 53.7207 24.8201 53.7207 27.805C53.7207 30.7899 56.1404 33.2097 59.1254 33.2097Z" fill="#2995D6" stroke="#0075C9" stroke-miterlimit="10"/>
<path d="M17.7773 35.6836H22.1401C22.1401 37.1813 23.3773 38.4185 24.875 38.4185C26.3727 38.4185 27.6099 37.1813 27.6099 35.6836H32.6239L34.9029 39.3301V62.7068H49.0983V39.3301L51.3774 35.6836H56.3913C56.3913 37.1813 57.6285 38.4185 59.1262 38.4185C60.6239 38.4185 61.8611 37.1813 61.8611 35.6836H66.2239" stroke="#0075C9" stroke-miterlimit="10"/>
<path d="M17.5816 40.2414C16.4096 40.9576 14.9119 40.5018 14.1956 39.3297L12.6328 36.66L16.9305 34.1855L18.4933 36.8553C19.1444 38.0274 18.7537 39.5902 17.5816 40.2414Z" stroke="#0075C9" stroke-miterlimit="10" stroke-linejoin="round"/>
<path d="M13.4785 38.1582V55.0884C13.4785 56.7163 14.7808 58.0187 16.4087 58.0187H17.3855V62.707H31.125V44.9954L34.9018 45.7117" stroke="#0075C9" stroke-miterlimit="10"/>
<path d="M49.0977 45.7104L52.8744 44.9941V62.6406H66.6139V57.9523H67.5907C69.2186 57.9523 70.5209 56.6499 70.5209 55.022V38.0918" stroke="#0075C9" stroke-miterlimit="10"/>
<path d="M32.623 35.6845L34.9021 34.4473H39.1998C39.1998 35.9449 40.437 37.1821 41.9347 37.1821C43.4324 37.1821 44.6696 35.9449 44.6696 34.4473H49.0324L51.3114 35.6845" stroke="#0075C9" stroke-miterlimit="10"/>
<path d="M66.4187 40.2414C67.5908 40.9576 69.0884 40.5018 69.8047 39.3297L71.3675 36.66L67.0698 34.1855L65.507 36.8553C64.8559 38.0274 65.2466 39.5902 66.4187 40.2414Z" stroke="#0075C9" stroke-miterlimit="10" stroke-linejoin="round"/>
<path d="M17.4512 58.0194V44.9961" stroke="#0075C9" stroke-miterlimit="10" stroke-linejoin="round"/>
<path d="M66.5488 58.0194V44.9961" stroke="#0075C9" stroke-miterlimit="10" stroke-linejoin="round"/>
<path d="M83.675 0.326172H0.326172V83.675H83.675V0.326172Z" stroke="#0075C9" stroke-miterlimit="10"/>
</g>
<defs>
<clipPath id="clip0_665_454">
<rect width="84" height="84" fill="white"/>
</clipPath>
</defs>
</svg>
